<svg width="11" height="17" fill="none" xmlns="http://www.w3.org/2000/svg"><path d="M6.254 17v-1.234C9.308 15.502 11 13.916 11 11.33c0-2.203-1.232-3.564-3.651-4.064l-1.095-.215V4.005c.791.137 1.37.813 1.398 1.587h3.09c-.027-2.331-1.756-3.976-4.488-4.25V0H4.93v1.332C1.959 1.567.248 3.153.248 5.69c0 2.144 1.233 3.554 3.587 4.103l1.095.254V13.2c-.984-.107-1.693-.783-1.739-1.645H0c.01 2.507 1.821 4.064 4.93 4.23V17h1.324zm1.6-5.268c0 .832-.597 1.39-1.6 1.469v-2.919c1.076.216 1.6.695 1.6 1.45zM3.478 5.357c0-.754.597-1.313 1.453-1.371v2.78c-.948-.205-1.453-.695-1.453-1.41z" fill="#FD665E"/></svg>