<svg width="47" height="16" fill="none" xmlns="http://www.w3.org/2000/svg"><path d="M14 12.68L9.686.525H7.279l-4.23 11.784c-.721 2.038-1.06 2.409-2.131 2.604v.505h4.127v-.505c-1.41-.216-1.616-.669-1.008-2.562l.668-2.028h4.611l.762 2.264c.556 1.688.299 2.13-1.009 2.326v.505h6.917v-.505c-1.04-.195-1.4-.586-1.987-2.233zM4.931 9.603L6.98 3.324l2.1 6.279H4.932z" fill="#FD665E"/><path d="M20 5.053l-4.549.556v.474l.525.164c.566.196.659.34.659 1.009v6.546c0 .72-.165.947-1.184 1.111v.505h5.887v-.505c-1.132-.185-1.317-.401-1.317-1.214V8.306c.453-.422 1.492-.69 2.511-.69.587 0 1.184.093 1.483.206.123-.247.236-.68.236-1.122 0-.926-.442-1.667-1.369-1.667-1.04 0-1.904.875-2.892 2.923L20 5.053zm9.563 10.571c1.852 0 3.396-.71 4.158-1.802v-.504c-.515.504-1.41.844-2.408.844-2.049 0-3.706-1.616-3.706-4.446 0-2.357 1.235-3.86 3.098-3.86.556 0 1.05.134 1.441.381-.02-.01-.03-.01-.051-.01-.793 0-1.441.658-1.441 1.492s.669 1.493 1.513 1.493c.823 0 1.513-.649 1.513-1.555 0-1.482-1.41-2.665-3.89-2.665-3.274 0-5.682 2.182-5.682 5.331 0 3.263 2.419 5.3 5.455 5.3zM38.446 0l-4.57.556v.473l.525.175c.576.196.659.34.659 1.009V13.78c0 .741-.186.957-1.184 1.132v.505h5.599v-.505c-.895-.164-1.03-.35-1.03-1.07V7.369c.31-.576.958-.967 1.802-.967 1.163 0 1.842.69 1.842 2.068v5.373c0 .72-.154.916-1.029 1.07v.505h5.599v-.505c-1.019-.175-1.194-.39-1.194-1.132V8.275c0-2.223-1.41-3.283-3.5-3.283-1.739 0-3.005.792-3.54 1.955L38.445 0z" fill="#FD665E"/></svg>