<svg width="52" height="11" fill="none" xmlns="http://www.w3.org/2000/svg"><path d="M5.18.43L.63.986v.473l.526.165c.576.195.658.34.658 1.008v6.526c0 .74-.185.957-1.183 1.132v.504H6.23v-.504c-.896-.154-1.03-.35-1.03-1.07V2.745c.31-.566.896-.968 1.73-.968 1.08 0 1.698.68 1.698 2.048V9.22c0 .72-.124.917-1.02 1.07v.505h5.435v-.504c-.895-.154-1.03-.35-1.03-1.07V3.475c0-.288-.02-.535-.071-.782.319-.556.937-.916 1.77-.916 1.091 0 1.73.68 1.73 2.048V9.22c0 .72-.135.906-1.03 1.07v.505h5.599v-.504c-1.009-.175-1.184-.391-1.184-1.132V3.63c0-2.172-1.348-3.263-3.396-3.263-1.719 0-3.047.824-3.55 1.987C11.51 1.068 10.294.368 8.678.368c-1.75 0-3.005.824-3.5 1.976V.43zM26.002 11c3.314 0 5.794-2.203 5.794-5.362 0-3.222-2.46-5.27-5.753-5.27-3.304 0-5.784 2.192-5.784 5.352 0 3.232 2.46 5.28 5.743 5.28zm.072-.68c-1.38 0-2.234-1.77-2.234-4.713 0-2.84.741-4.56 2.141-4.56 1.37 0 2.223 1.76 2.223 4.704 0 2.84-.74 4.57-2.13 4.57zm6.68-7.554l3.088 8.049h1.853l2.943-7.627c.638-1.657.927-1.945 1.75-2.11V.564H38.95v.514c1.163.165 1.297.494.813 2.028l-1.626 4.878-1.626-4.899c-.474-1.513-.34-1.852.854-2.007V.564H31.18v.514c.813.175 1.09.463 1.574 1.688zM41.586 5.7c0 3.272 2.419 5.3 5.486 5.3 1.914 0 3.478-.69 4.23-1.822l-.01-.504c-.515.525-1.38.906-2.388.906-2.08 0-3.613-1.513-3.88-4.19h6.411c.021-.174.052-.442.052-.71 0-2.552-1.709-4.312-4.56-4.312-3.21 0-5.341 2.203-5.341 5.332zm3.386-1.194c0-2.213.71-3.459 1.956-3.459 1.09 0 1.585 1.174 1.585 3.006 0 .298 0 .514-.01.71l-3.52.041c-.011-.103-.011-.195-.011-.298z" fill="#FD665E"/></svg>